<svg width="30" height="17" viewBox="0 0 30 17" fill="none" xmlns="http://www.w3.org/2000/svg">
<path d="M28.3628 11.7206C28.3628 11.6831 28.3253 11.6456 28.3253 11.6456C26.0731 7.44152 22.0568 4.77647 17.3272 4.36358C12.7854 3.98822 7.56788 5.78994 4.67761 9.43093C4.0395 10.2567 3.02603 11.4203 3.58907 12.4338C4.00197 13.1845 5.05297 13.7851 5.76616 14.198C9.70743 16.5628 14.8499 16.788 19.2416 16.0748C22.3195 15.5868 25.8479 14.4607 28.2127 12.3212C28.4003 12.1335 28.4379 11.9458 28.3628 11.7206C28.3628 11.7206 28.3628 11.7582 28.3628 11.7206ZM18.4533 5.94009C18.5659 5.94009 18.6785 5.90255 18.7911 5.86501C18.7911 5.86501 18.8662 5.94009 18.9037 5.94009C18.9788 6.01516 19.0539 6.20284 19.0539 6.31545C19.0539 6.54066 18.8662 6.72834 18.641 6.6908C18.1906 6.65327 18.153 6.1653 18.4533 5.94009ZM12.1473 7.1037C12.41 8.75528 13.4986 10.069 15.1877 10.2567C17.102 10.4819 18.3032 9.46846 18.9413 7.81688C18.9788 7.81688 19.0163 7.81688 19.0163 7.81688C19.8046 7.6292 20.2175 6.84095 20.1049 6.12777C20.3301 6.20284 20.5553 6.27791 20.7805 6.35298C20.4802 8.83035 19.0914 10.9324 16.4639 11.4203C13.386 11.9834 10.8335 9.43093 10.5708 6.54066C11.0963 6.31545 11.6218 6.1653 12.1473 6.01516C12.0722 6.39052 12.1097 6.80341 12.1473 7.1037ZM19.2416 14.9487C14.7372 15.6994 8.91917 15.5118 5.20312 12.4338C5.01544 12.2837 4.48993 11.9458 4.4524 11.6831C4.41486 11.5705 5.5034 10.1816 5.80369 9.84382C6.81716 8.64267 8.13092 7.70428 9.55729 6.99109C10.0453 10.2192 12.8604 12.9218 16.3513 12.5464C19.5418 12.2086 21.4186 9.69368 21.9066 6.76588C24.0462 7.85442 25.8854 9.54354 27.1616 11.7582C24.9846 13.5974 21.9066 14.4983 19.2416 14.9487Z" fill="black"/>
<path d="M0.961556 7.29137C0.436053 6.76587 -0.352201 7.55413 0.173302 8.07963C0.773877 8.71774 1.37445 9.31831 2.01256 9.95643C2.53807 10.4819 3.32632 9.69367 2.80082 9.16817C2.16271 8.53006 1.56213 7.92949 0.961556 7.29137Z" fill="#DA2C2C"/>
<path d="M5.99138 5.90252C6.36674 6.50309 7.34267 5.94006 6.96732 5.33948C6.47935 4.55123 6.02892 3.76297 5.54095 2.97472C5.16559 2.37414 4.18966 2.93718 4.56502 3.53775C5.05298 4.36355 5.50341 5.1518 5.99138 5.90252Z" fill="#DA2C2C"/>
<path d="M11.2464 3.76296C11.359 4.47615 12.4476 4.17586 12.335 3.46268C12.1848 2.59935 12.0347 1.73602 11.8845 0.835161C11.7719 0.121978 10.6834 0.422265 10.796 1.13545C10.9461 1.99877 11.0963 2.89964 11.2464 3.76296Z" fill="#DA2C2C"/>
<path d="M18.6785 3.12487C18.7536 2.26154 18.8662 1.39821 18.9413 0.534887C19.0164 -0.178296 17.8903 -0.178296 17.8152 0.534887C17.7401 1.39821 17.6275 2.26154 17.5524 3.12487C17.4774 3.83805 18.6035 3.83805 18.6785 3.12487Z" fill="#DA2C2C"/>
<path d="M23.4456 4.9266C23.9335 4.25096 24.384 3.61285 24.8719 2.9372C25.2848 2.33662 24.3089 1.77358 23.896 2.37416C23.408 3.04981 22.9576 3.68792 22.4696 4.36356C22.0567 4.9266 23.0327 5.48964 23.4456 4.9266Z" fill="#DA2C2C"/>
<path d="M29.0384 6.57817C28.4378 7.17874 27.8748 7.74178 27.2742 8.34235C26.7487 8.86786 27.5745 9.65611 28.0625 9.13061C28.6631 8.53003 29.2261 7.96699 29.8267 7.36642C30.3522 6.87845 29.5639 6.0902 29.0384 6.57817Z" fill="#DA2C2C"/>
</svg>
